# xmcd CD database file
#
# Track frame offsets:
#	150
#	28326
#	56660
#	102410
#	125720
#	154030
#	181300
#	215979
#	242665
#	262312
#	281004
#	308432
#
# Disc length: 4364 seconds
#
# Revision: 0
# Processed by: cddbd v1.5.2PL0 Copyright (c) Steve Scherf et al.
# Submitted via: CDex 1.51
#
DISCID=b9110a0c
DTITLE=Donald Brown - The Classic Introvert
DYEAR=2004
DGENRE=Jazz
TTITLE0=Theme for Malcom
TTITLE1=Enchanté!
TTITLE2=Suite Africa
TTITLE3=The McGhaw's Place
TTITLE4=A Dance for Marie-Do
TTITLE5=The Classic Introvert
TTITLE6=Dance Sucker
TTITLE7=Phineas
TTITLE8=Strangers in Paradise
TTITLE9=A Poem for Martin
TTITLE10=I Love It When You Say It in French
TTITLE11=A Diamond in the Rough
EXTD=YEAR: 2004
EXTT0=
EXTT1=
EXTT2=
EXTT3=
EXTT4=
EXTT5=
EXTT6=
EXTT7=
EXTT8=
EXTT9=
EXTT10=
EXTT11=
PLAYORDER=
